<?xml version="1.0" encoding="utf-8"?>
<!-- Generator: Adobe Illustrator 24.2.1, SVG Export Plug-In . SVG Version: 6.00 Build 0)  -->
<svg version="1.1" id="Layer_1" xmlns="http://www.w3.org/2000/svg" xmlns:xlink="http://www.w3.org/1999/xlink" x="0px" y="0px"
	 viewBox="0 0 960 960" style="enable-background:new 0 0 960 960;" xml:space="preserve">
<style type="text/css">
	.st0{fill:#232324;}
	.st1{fill:#4B78BA;}
	.st2{fill:#E8521D;}
	.st3{fill:#F18E5C;}
	.st4{fill:#FACDB4;}
	.st5{fill:#F4A27A;}
	.st6{fill:none;}
	.st7{fill:#576F95;}
</style>
<g>
	<path class="st0" d="M662.89,764.6L479.81,947.92L307.25,762.12C362.73,734.65,506.81,680.69,662.89,764.6z"/>
	<path class="st1" d="M657.98,188l-3.88,209.26c-23.73-3.59-47.22-6.31-70.4-8.24l5.1-275.56L657.98,188z"/>
	<path class="st2" d="M821.8,364.42l-1.34,71.23c-12.51-4.01-25.06-7.69-37.53-11.13c-32.62-9.11-65.03-16.34-97.04-22.04
		l3.35-180.8L821.8,364.42z"/>
	<path class="st1" d="M924.91,475.41c-24.21-10.82-48.51-20.51-72.74-29.1l0.9-48.29L924.91,475.41z"/>
	<path class="st2" d="M557.62,79.83l-5.7,306.78c-46.93-2.78-92.26-2.67-135.29-0.61l5.54-299.42l73.42-73.53L557.62,79.83z"/>
	<path class="st1" d="M389.68,119.09l-4.97,268.79c-26.29,1.91-51.58,4.51-75.7,7.6l3.7-199.29L389.68,119.09z"/>
	<path class="st3" d="M312.23,721.94c-16.96,8.15-26.93,14.48-28.13,15.25L87.61,525.54l-2.04-2.17l16.28-53.13l0.07-0.07
		l119.28,49.56C221.21,519.78,294.04,682.59,312.23,721.94z"/>
	<path class="st4" d="M88.77,474.14l-12.8,38.89l-24.89-26.8C60.53,482.99,73.26,478.77,88.77,474.14z"/>
	<path class="st3" d="M890.78,545.06L687.21,740.19c-14.61-9.14-29.23-17-43.67-23.75l92.09-180.8l152.27-43.36h0.07v0.07
		L890.78,545.06z"/>
	<path class="st4" d="M928,509.35l-25.22,24.17l-2.26-36.11c6.79,2.78,13.58,5.72,20.38,8.74C923.29,507.2,925.61,508.28,928,509.35
		z"/>
	<path class="st2" d="M280.22,228.69l-3.18,171.25c-27.91,4.18-54.07,9.03-78.02,14.07c-28.13,5.89-53.39,12.07-75.13,17.94
		l1.07-58.02L280.22,228.69z"/>
	<path class="st1" d="M92.52,404.36l-0.68,36.66c-13.72,4.12-25.37,7.89-34.6,11c-15.51,5.26-24.32,8.7-25.37,9.11L92.52,404.36z"/>
	<path class="st5" d="M426.62,686.32c-43.01,6.79-78.85,19.67-103.83,30.76l-91.25-195.79l72.02-92.9l92.63,55.34L426.62,686.32z"/>
	<path class="st3" d="M564.69,500.92l-31,183.54c-35.14-4.51-68.25-3.53-98.18,0.61c-6.03-38.69-27.89-197.78-27.89-197.78
		l83.8-65.9L564.69,500.92z"/>
	<path class="st5" d="M729.72,526.75l-93.14,186.56c-31.86-14.18-62.95-22.85-92.79-27.5l29.03-182.75l108.23-61.22L729.72,526.75z"
		/>
	<polyline class="st6" points="101.85,470.29 101.85,470.22 101.94,470.22 	"/>
	<path class="st4" d="M287.32,429.99l-63.21,79.73L118,465.71c12.09-3.33,25.39-6.73,39.66-10.17
		C195.47,446.4,236.64,437.14,287.32,429.99z"/>
	<path class="st4" d="M477.32,416.76l-71.56,61.43l-89.19-52.8C364.5,420.86,419.26,416.83,477.32,416.76z"/>
	<path class="st4" d="M673.06,433l-101.4,58.61l-66.78-74.54C560.55,418.32,613.35,422.7,673.06,433z"/>
	<path class="st4" d="M874.96,487.18l-134.64,35.69l-48.95-86.57c45.11,8.15,87.24,18.19,133.34,33.11
		C841.41,474.84,858.17,480.76,874.96,487.18z"/>
	<path class="st7" d="M102.68,622.36c0.11,0.09,0.24,0.15,0.35,0.24c0.02,0.07,0,0.18,0,0.26c-0.09-0.18-0.18-0.35-0.26-0.57
		C102.77,622.3,102.68,622.36,102.68,622.36z"/>
</g>
</svg>
