<?xml version="1.0" encoding="utf-8"?>
<!-- Generator: Adobe Illustrator 24.2.1, SVG Export Plug-In . SVG Version: 6.00 Build 0)  -->
<svg version="1.1" id="Layer_1" xmlns="http://www.w3.org/2000/svg" xmlns:xlink="http://www.w3.org/1999/xlink" x="0px" y="0px"
	 viewBox="0 0 960 960" style="enable-background:new 0 0 960 960;" xml:space="preserve">
<style type="text/css">
	.st0{fill:#232324;}
	.st1{fill:#4B78BA;}
	.st2{fill:#E8521D;}
	.st3{fill:#F18E5C;}
	.st4{fill:#FACDB4;}
	.st5{fill:#F4A27A;}
	.st6{fill:none;}
	.st7{fill:#576F95;}
</style>
<g>
	<path class="st0" d="M563.44,610.16l-83.56,83.67l-78.76-84.8C426.44,596.49,492.2,571.86,563.44,610.16z"/>
	<path class="st1" d="M561.2,346.99l-1.77,95.51c-10.83-1.64-21.55-2.88-32.13-3.76l2.33-125.77L561.2,346.99z"/>
	<path class="st2" d="M635.97,427.51l-0.61,32.51c-5.71-1.83-11.44-3.51-17.13-5.08c-14.89-4.16-29.68-7.46-44.29-10.06l1.53-82.52
		L635.97,427.51z"/>
	<path class="st1" d="M683.03,478.17c-11.05-4.94-22.14-9.36-33.2-13.28l0.41-22.04L683.03,478.17z"/>
	<path class="st2" d="M515.39,297.62l-2.6,140.02c-21.42-1.27-42.11-1.22-61.75-0.28l2.53-136.66l33.51-33.56L515.39,297.62z"/>
	<path class="st1" d="M438.74,315.54l-2.27,122.68c-12,0.87-23.54,2.06-34.55,3.47l1.69-90.96L438.74,315.54z"/>
	<path class="st3" d="M403.39,590.69c-7.74,3.72-12.29,6.61-12.84,6.96l-89.68-96.6l-0.93-0.99l7.43-24.25l0.03-0.03l54.44,22.62
		C361.85,498.42,395.09,572.73,403.39,590.69z"/>
	<path class="st4" d="M301.4,477.59l-5.84,17.75l-11.36-12.23C288.51,481.63,294.32,479.7,301.4,477.59z"/>
	<path class="st3" d="M667.45,509.96l-92.91,89.06c-6.67-4.17-13.34-7.76-19.93-10.84l42.03-82.52l69.5-19.79h0.03v0.03
		L667.45,509.96z"/>
	<path class="st4" d="M684.44,493.66l-11.51,11.03l-1.03-16.48c3.1,1.27,6.2,2.61,9.3,3.99
		C682.29,492.68,683.35,493.17,684.44,493.66z"/>
	<path class="st2" d="M388.78,365.56l-1.45,78.16c-12.74,1.91-24.68,4.12-35.61,6.42c-12.84,2.69-24.37,5.51-34.29,8.19l0.49-26.48
		L388.78,365.56z"/>
	<path class="st1" d="M303.11,445.74l-0.31,16.73c-6.26,1.88-11.58,3.6-15.79,5.02c-7.08,2.4-11.1,3.97-11.58,4.16L303.11,445.74z"
		/>
	<path class="st5" d="M455.6,574.43c-19.63,3.1-35.99,8.98-47.39,14.04l-41.65-89.36l32.87-42.4l42.28,25.26L455.6,574.43z"/>
	<path class="st3" d="M518.62,489.81l-14.15,83.77c-16.04-2.06-31.15-1.61-44.81,0.28c-2.75-17.66-12.73-90.27-12.73-90.27
		l38.25-30.08L518.62,489.81z"/>
	<path class="st5" d="M593.94,501.6l-42.51,85.15c-14.54-6.47-28.73-10.43-42.35-12.55l13.25-83.41l49.4-27.94L593.94,501.6z"/>
	<polyline class="st6" points="307.37,475.83 307.37,475.8 307.41,475.8 	"/>
	<path class="st4" d="M392.02,457.44l-28.85,36.39l-48.43-20.09c5.52-1.52,11.59-3.07,18.1-4.64
		C350.1,464.93,368.89,460.7,392.02,457.44z"/>
	<path class="st4" d="M478.74,451.4l-32.66,28.04l-40.71-24.1C427.25,453.27,452.24,451.43,478.74,451.4z"/>
	<path class="st4" d="M568.08,458.81l-46.28,26.75l-30.48-34.02C516.73,452.11,540.83,454.11,568.08,458.81z"/>
	<path class="st4" d="M660.23,483.54l-61.45,16.29l-22.34-39.51c20.59,3.72,39.82,8.3,60.86,15.11
		C644.92,477.91,652.57,480.61,660.23,483.54z"/>
	<path class="st7" d="M307.75,545.24c0.05,0.04,0.11,0.07,0.16,0.11c0.01,0.03,0,0.08,0,0.12c-0.04-0.08-0.08-0.16-0.12-0.26
		C307.79,545.21,307.75,545.24,307.75,545.24z"/>
</g>
</svg>
