<?xml version="1.0" encoding="utf-8"?>
<!-- Generator: Adobe Illustrator 24.2.1, SVG Export Plug-In . SVG Version: 6.00 Build 0)  -->
<svg version="1.1" id="Layer_1" xmlns="http://www.w3.org/2000/svg" xmlns:xlink="http://www.w3.org/1999/xlink" x="0px" y="0px"
	 viewBox="0 0 960 960" style="enable-background:new 0 0 960 960;" xml:space="preserve">
<style type="text/css">
	.st0{fill:none;}
	.st1{fill:#4B78BA;}
	.st2{fill:#EC9C80;}
</style>
<g>
	<path class="st0" d="M670.43,636.88l-5.52,5.06l31.55,33.98l5.52-5.06L670.43,636.88z M653.88,652.1l31.55,33.98l5.57-5.06
		l-31.55-33.98L653.88,652.1z M559.73,264.4l24.74,39.17l6.36-3.98l-24.74-39.17L559.73,264.4z M547,272.37l24.74,39.17l6.36-3.98
		l-24.74-39.17L547,272.37z M514.42,472.3l46.39,2.81l0.46-7.47l-46.39-2.81L514.42,472.3z M515.33,457.34l46.39,2.81l0.46-7.47
		l-46.39-2.81L515.33,457.34z M361.57,463.09l46.39,2.81l0.46-7.47l-46.39-2.81L361.57,463.09z M362.45,448.15l46.39,2.81l0.46-7.47
		l-46.39-2.81L362.45,448.15z M377.01,209.96l46.39,2.81l0.46-7.47l-46.39-2.81L377.01,209.96z M377.94,195.1l46.39,2.81l0.46-7.47
		l-46.39-2.81L377.94,195.1z M209.76,453.94l46.35,2.78l0.46-7.47l-46.35-2.78L209.76,453.94z M210.66,439.01l46.35,2.78l0.46-7.47
		l-46.35-2.78L210.66,439.01z M53.44,444.51l46.39,2.81l0.46-7.47l-46.39-2.81L53.44,444.51z M54.37,429.6l46.39,2.81l0.46-7.47
		l-46.39-2.81L54.37,429.6z"/>
	<path class="st1" d="M349.75,650.22c4.15,2.3,6.01,5.37,8.11,8c9.9,12.33,21.32,23.13,33.53,33.07
		c11.84,9.63,24.57,18.05,38.33,24.68c9.48,4.6,19.42,8.24,29.58,11.13c18.82,5.39,37.95,6.61,57.35,4.53
		c14.62-1.57,28.56-5.63,42.06-11.38c13.63-5.77,26.42-12.95,38.13-22.07c9.74-7.6,19.04-15.68,27.57-24.7
		c14.91-15.77,27.39-33.23,38.24-51.94c1.66-2.87,3.07-5.88,4.57-8.84c0.35-0.73,0.68-1.52,0.33-2.65c-2.5,0.44-3.71,2.65-4.77,4.35
		c-4.88,7.86-11.89,13.98-17.61,21.16c-8.97,11.24-19.59,20.99-29.93,30.95c-8.77,8.44-17.89,16.57-28.28,23.11
		c-2.85,1.79-6.08,2.76-9.08,4.22c-7.93,3.95-15.51,8.51-23.66,12.04c-12.19,5.28-24.74,9.39-38.04,10.56
		c-12.92,1.13-25.85,1.59-38.68-0.6c-12.75-2.19-24.94-6.12-36.69-11.64c-11.35-5.37-22.4-11.24-32.34-18.98
		c-10.54-8.2-20.7-16.81-29.85-26.62c-10.07-10.78-19.2-22.22-27.64-34.22c-1.26-1.81-2.14-3.62-2.23-5.96
		c-0.82-27.44-1.68-54.85-2.52-82.29c-0.02-0.95,0.13-1.9,0.29-3.89c2.72,6.49,5.39,12.02,7.38,17.74
		c4.37,12.55,11.2,23.77,18.25,34.9c5.52,8.73,11.35,17.25,18.34,24.96c13.78,15.27,29.32,28.25,47.76,37.53
		c11.02,5.57,22.78,8.51,34.88,10.6c8.75,1.5,17.41,1.3,26.11,0.73c9.43-0.62,18.42-3.31,27.39-6.16
		c13.59-4.33,25.23-12.02,36.52-20.5c12.15-9.15,22.22-20.21,31.22-32.25c12.7-17.05,22.62-35.72,30.07-55.69
		c3.89-10.47,7.69-20.92,10.38-31.75c3.07-12.28,4.93-24.81,6.67-37.38c3.07-22.29,4.04-44.6,2.19-67
		c-1.06-12.44-2.63-24.87-5.1-37.18c-2.03-10.14-4.46-20.21-6.98-30.24c-2.54-10.16-6.67-19.88-10.65-29.6
		c-3.89-9.46-8.64-18.45-13.45-27.42c-5.28-9.83-11.8-18.93-19-27.57c-4.71-5.61-9.04-11.55-14.58-16.44
		c-8.77-7.69-17.16-15.88-27.48-21.65c-15.11-8.48-30.82-15.11-48.31-17.16c-7.25-0.84-14.38-1.39-21.58-0.73
		c-8.53,0.77-16.79,2.74-25.01,5.21c-13.17,4-24.83,10.78-36.1,18.31c-7.25,4.82-13.32,11.09-19.64,17.03
		c-6.87,6.45-12.33,14.03-17.98,21.47c-10.34,13.63-18.05,28.74-24.9,44.32c-6.87,15.6-11.53,31.9-15.44,48.47
		c-2.19,9.28-3.84,18.58-5.15,28.01c-3.51,25.56-4.24,51.25-3.38,77.01c3.69,114.04,7.25,228.09,10.89,342.13
		c0.07,1.5,0.11,3,0.11,4.53c0,0.82,0.11,1.77-0.86,2.12c-0.86,0.33-1.61-0.09-2.25-0.73c-2.81-2.87-5.63-5.72-8.37-8.62
		c-13.21-13.92-26.38-27.88-39.57-41.82c-2.7-2.83-3.47-6.19-3.58-10.05c-1.63-54.34-3.4-108.69-5.1-163.03
		c-1.97-62.72-4.15-125.41-5.83-188.13c-0.44-16.37-0.91-32.78,0.84-49.13c1.39-13.08,3.09-26.16,5.79-39.1
		c1.33-6.38,2.81-12.72,4.75-18.89c2.39-7.62,5.63-14.98,9.23-22.11c2.78-5.5,5.32-11.16,8.51-16.41
		c3.89-6.43,8.17-12.64,12.59-18.71c12.97-17.83,28.45-33.18,46.15-46.39c13.61-10.14,28.08-18.71,43.56-25.6
		c11.47-5.1,23.53-8.48,35.66-11.84c19.33-5.32,38.99-6.63,58.83-6.21c8.81,0.2,17.63,1.68,26.4,3.18
		c9.12,1.55,17.87,4.42,26.77,6.56c7.2,1.75,13.65,5.37,20.46,8.11c5.77,2.32,11.02,5.61,16.3,8.84c2.43,1.48,4.9,2.87,7.62,3.82
		c4.33,1.52,7.71,4.66,11.33,7.33c5.79,4.22,11.33,8.7,17.3,12.77c5.21,3.53,9.37,8.57,14.07,12.84
		c7.03,6.43,13.48,13.48,19.82,20.54c5.92,6.56,10.47,14.23,14.67,22.03c1.39,2.61,3.14,4.95,5.52,7.4
		c0.51-2.98-0.91-4.88-1.83-6.94c-2.05-4.57-3.78-9.3-6.05-13.72c-6.36-12.28-14.54-23.37-22.93-34.37
		c-7.67-10.05-16.66-18.84-26.31-26.71c-12.02-9.79-24.7-18.8-39.08-25.27c-10.85-4.88-21.65-9.74-33.07-13.1
		c-9.17-2.7-18.45-4.62-27.99-5.83c-12.22-1.57-24.39-2.54-36.63-2.3c-13.96,0.24-27.7,2.3-41.49,4.73
		c-12.15,2.14-23.81,5.79-35.19,10.14c-9.81,3.76-19.2,8.51-28.5,13.45c-21.32,11.38-40.03,26.05-56.82,43.21
		c-13.39,13.65-24.5,29.01-34.4,45.33c-8.99,14.8-15.27,30.68-20.83,46.9c-4.71,13.72-8,27.79-9.34,42.35
		c-0.8,8.97-1.79,17.92-2.16,26.95c-0.24,5.57,0.62,11.02,0.8,16.52c2.83,87.81,5.66,175.58,8.51,263.39
		c0.95,29.76,1.9,59.54,2.83,89.29c0.07,1.94,0.4,3.93-0.29,6.19c-2.47-0.2-3.47-2.14-4.73-3.49c-8.75-9.17-17.05-18.76-26.16-27.55
		c-7.82-7.56-14.12-16.46-22.51-23.42c-3.36-2.78-4.24-6.38-4.37-10.63c-1.39-47.01-2.92-93.98-4.4-140.99
		c-2.16-68.75-4.31-137.47-6.63-206.18c-0.15-4.77,1.06-8.06,4.64-11.33c5.41-4.95,9.99-10.8,15.29-15.88
		c12.17-11.69,23.57-24.12,35.26-36.25c10.29-10.69,20.74-21.27,31.08-31.94c7.97-8.28,15.53-16.97,23.9-24.92
		c10.05-9.54,19.51-19.68,29.07-29.69c11.09-11.55,22.29-23.04,33.38-34.57c7.18-7.44,14.05-15.24,21.61-22.31
		c7.29-6.87,13.61-14.67,20.77-21.65c3-2.92,6.08-5.7,9.21-8.44c1.75-1.55,3.78-2.41,6.14-3.07c21.05-5.81,42.53-7.93,64.26-7.6
		c6.19,0.09,12.39,0.82,18.56,1.39c6.83,0.62,13.56,1.83,20.35,3.05c8.9,1.61,17.56,4.24,26.33,6.45c2.25,0.55,3.62,2.34,5.04,3.95
		c8.77,9.83,17.47,19.73,26.27,29.56c10.89,12.19,22.05,24.17,32.61,36.67c8.92,10.58,18.53,20.57,27.5,31.1
		c13.32,15.6,27.42,30.51,40.98,45.93c7.16,8.15,14.71,15.97,21.63,24.28c10.05,12.04,21.16,23.11,30.97,35.32
		c2.74,3.38,5.99,6.27,8.88,9.54c3.62,4.13,7.07,8.48,10.69,12.61c1.15,1.3,1.15,2.65,1.19,4.18c1.35,43.65,2.72,87.28,4.11,130.94
		c1.97,62.39,3.91,124.77,5.96,187.11c0.13,3.87-0.44,6.94-3.38,9.92c-6.41,6.58-12.84,13.17-19.6,19.4
		c-4.53,4.18-8.44,9.01-12.95,13.19c-10.69,9.87-20.68,20.37-30.99,30.6c-13.41,13.25-26.77,26.55-40.07,39.96
		c-13.25,13.39-26.91,26.42-40.1,39.92c-9.32,9.54-19.35,18.4-28.28,28.34c-4.55,5.08-9.9,9.5-14.85,14.23
		c-3.78,3.58-8.7,4.95-13.34,6.8c-10.16,4.02-20.79,6.54-31.57,8.26c-12.11,1.94-24.28,3.51-36.58,3.42
		c-16.99-0.13-33.91-1.44-50.5-5.17c-16.37-3.67-31.94-9.72-47.08-17.1c-14.6-7.11-27.28-16.79-39.41-27.33
		c-4.82-4.2-8.17-9.72-12.57-14.34c-0.99-1.06-1.1-2.41-1.13-3.76c-0.42-14.05-0.86-28.08-1.26-42.15c0-0.49,0.13-0.97,0.27-1.86
		c3.07,0.75,5.17,2.98,7.18,4.93c13.14,12.59,28.28,22.36,44.12,31.19c15.77,8.79,32.76,14.36,50.1,18.82
		c8.53,2.21,17.32,3.6,26.27,4.11c8.04,0.46,16.02,1.19,24.12,0.91c13.65-0.53,26.97-2.65,40.27-5.68
		c11.49-2.63,22.51-6.49,33.34-10.96c16.15-6.63,31.06-15.38,45.4-25.47c12.92-9.12,24.9-19.26,35.68-30.64
		c10.34-10.87,20.21-22.22,28.48-34.93c5.63-8.68,11.31-17.3,16.59-26.2c2.81-4.73,4.99-9.81,7.36-14.78
		c1.77-3.73,3.42-7.56,5.35-11.77c-6.74,7.78-10.8,16.75-16.66,24.48c-5.37,7.05-10.45,14.32-16.08,21.12
		c-5.01,6.05-10.67,11.53-15.91,17.39c-9.87,10.94-20.7,20.85-32.25,29.91c-11.27,8.86-22.78,17.63-35.61,24.21
		c-13.37,6.85-26.93,13.28-41.31,18.09c-12.81,4.29-25.85,6.87-39.23,8.37c-6.85,0.8-13.7,1.63-20.57,1.52
		c-14.45-0.29-28.87-0.99-42.95-4.4c-11.38-2.76-22.4-6.67-33.14-11.44c-12.61-5.59-24.57-12.22-35.57-20.46
		c-10.29-7.71-20.59-15.49-28.85-25.47c-0.11-0.13-0.2-0.31-0.31-0.38c-6.63-4.02-7.25-10.34-7.31-17.34
		c-0.18-16.24-0.93-32.43-1.44-48.65C349.91,654.93,349.86,653.09,349.75,650.22z"/>
	<path class="st2" d="M630.36,426.04c-0.53,11.8-0.73,24.12-1.99,36.43c-1.02,9.99-2.43,19.86-4.31,29.62
		c-1.68,8.77-3.78,17.56-6.74,26.07c-1.59,4.55-2.45,9.3-4.13,13.87c-4.51,12.37-10.23,24.17-16.28,35.85
		c-6.58,12.68-15.49,23.7-24.15,34.93c-2.67,3.47-6.19,6.08-9.26,9.17c-11.24,11.2-24.34,19.93-38.99,25.82
		c-18.03,7.29-36.69,9.7-56.11,5.21c-15.44-3.56-29.6-9.85-42.17-19.06c-12.11-8.9-22.75-19.44-31.83-31.61
		c-6.16-8.31-11.89-16.86-16.99-25.8c-3.16-5.5-5.41-11.49-8.13-17.21c-5.17-10.82-9.12-22.09-12.55-33.53
		c-2.85-9.52-5.32-19.24-6.12-29.25c-0.27-3.45-1.88-6.63-2.16-10.21c-0.75-9.63-2.39-19.2-3.09-28.85
		c-0.64-8.84-0.99-17.67-0.2-26.55c0.46-5.48,0.68-10.98,1.06-16.48c0.29-4.15,0.33-8.37,1.04-12.46
		c2.1-11.97,3.09-24.15,6.25-35.92c4.15-15.44,9.43-30.49,15.64-45.31c6.47-15.53,15.6-29.43,25.16-43.08
		c4.11-5.88,9.48-10.74,14.2-16.06c6.38-7.18,14.16-12.75,22.03-18.05c10.67-7.18,21.96-13.08,35.04-15.22
		c7.11-1.17,14.09-2.78,21.36-2.98c3.25-0.11,6.38,0.27,9.52,0.86c9.99,1.81,20.08,2.74,29.49,7.51c8.35,4.24,16.3,8.84,23.95,14.27
		c16.48,11.71,29.09,26.75,39.83,43.56c8.09,12.68,15.09,25.91,20.52,39.96c2.03,5.26,3.73,10.67,5.37,16.06
		c2.25,7.49,4.51,14.98,6.34,22.53c2.19,9.04,3.53,18.29,4.99,27.5C628.94,400.24,629.56,412.85,630.36,426.04z"/>
	<path class="st1" d="M791.86,629.08c-1.39-7.95-9.96-289.82-8.95-293.79c12.9,14.58,25.52,29.2,38.51,43.39
		c5.99,6.54,11.33,13.59,17.5,19.93c2.34,2.43,2.89,5.04,3,8.13c0.86,28.41,1.77,56.84,2.7,85.25c0.8,25.56,1.57,51.16,2.5,76.75
		c0.13,3.76-0.68,6.41-3.69,9.12c-6.08,5.46-11.31,11.82-17.3,17.39c-10.16,9.46-19.15,20.06-29.67,29.12
		C794.96,625.63,793.7,627.14,791.86,629.08z"/>
	<path class="st1" d="M195.97,658.68c-4.84-3.56-8.22-7.29-11.42-11.09c-6.27-7.42-13.56-13.78-19.99-21.03
		c-4.86-5.5-10.03-10.76-15.13-15.99c-2.58-2.7-3.69-5.63-3.8-9.41c-1.5-50.81-3.14-101.64-4.75-152.45
		c-0.64-20.72-1.24-41.47-2.05-62.19c-0.18-3.84,0.88-6.67,3.53-9.34c9.5-9.59,18.93-19.29,28.28-29.03
		c4.04-4.2,7.71-8.77,12.22-12.53c0.77-0.62,1.37-1.41,2.81-1.33C189.08,442.14,192.51,549.99,195.97,658.68z"/>
	<path class="st1" d="M355.27,811.25c1.37,0.95,2.12,1.35,2.7,1.94c7.51,7.69,15.93,14.14,25.05,19.9
		c12.22,7.67,24.81,14.38,38.46,19.2c11.69,4.11,23.44,7.82,35.54,10.27c7.69,1.55,15.49,2.47,23.33,3.38
		c10.71,1.24,21.41,1.55,32.14,1.15c14.27-0.51,28.34-2.63,42.24-5.83c0.82-0.2,1.61-0.46,2.41,0.2c0.42,1.83-1.19,2.65-2.25,3.49
		c-8.04,6.58-14.34,14.89-22.07,21.78c-8.35,7.49-15.42,16.19-23.79,23.64c-7.86,7-14.45,15.22-22.29,22.22
		c-4.73,4.22-9.21,8.7-13.52,13.34c-2.78,3-2.96,2.94-5.81-0.04c-8.06-8.42-16.08-16.88-24.1-25.34
		c-10.69-11.22-21.56-22.22-31.97-33.71c-6.83-7.53-14.32-14.45-21.03-22.07c-8.17-9.28-17.25-17.65-25.47-26.86
		c-2.54-2.87-4.77-5.99-7.75-8.48c-0.86-0.73-1.63-1.68-1.68-2.98C355.21,821.67,354.79,816.86,355.27,811.25z"/>
	<path class="st1" d="M129.9,589.32c-8.2-7.38-14.89-15.27-22.05-22.71c-8.57-8.86-16.88-17.98-25.41-26.89
		c-1.9-1.97-2.74-3.98-2.81-6.65c-0.84-28.08-1.72-56.13-2.67-84.21c-0.09-2.87,0.82-4.9,2.87-7.03
		c11.8-12.04,23.37-24.28,35.08-36.38c2.63-2.7,5.52-5.13,8.44-7.84C124.69,401.65,130.74,581.23,129.9,589.32z"/>
	<path class="st1" d="M861.7,559.12c-1.48-46.41-2.92-92.12-4.4-138.23c3.11,1.13,4.77,3.49,6.54,5.48
		c18.25,20.59,36.36,41.35,54.92,61.7c1.46,1.59,2.7,3.38,4.15,4.99c2.14,2.36,1.92,3.56-0.2,6.03
		c-5.39,6.41-11.95,11.64-17.78,17.61c-11.29,11.55-22.78,22.97-34.24,34.37C868.04,553.75,865.1,556.14,861.7,559.12z"/>
	<path class="st1" d="M542.45,65.09c-4.4,1.26-8.64-0.29-12.92-0.71c-7.49-0.77-14.91-2.25-22.47-2.56
		c-12.26-0.53-24.48-1.15-36.67,0.18c-7.64,0.82-15.31,1.5-23.31,2.3c2.16-5.08,6.19-8.24,9.63-11.66
		c8.31-8.22,16.04-16.99,24.46-25.07c4.93-4.75,9.43-9.87,14.54-15c8.64,8.31,15.84,17.61,23.79,26.24
		c7.91,8.57,15.62,17.25,22.89,26.35L542.45,65.09z"/>
	<path class="st1" d="M62.5,460.99c0.62,19.37,1.24,38.64,1.86,57.95c-1.55,0.38-2.19-0.64-3.03-1.41
		c-7.4-6.76-13.61-14.62-20.54-21.8c-1.63-1.68-3.36-3.23-4.99-4.88c-1.08-1.1-1.28-2.23-0.09-3.47
		c8.42-8.77,16.59-17.81,25.67-25.94C61.53,461.21,61.88,461.19,62.5,460.99z"/>
</g>
</svg>
