<?xml version="1.0" encoding="utf-8"?>
<!-- Generator: Adobe Illustrator 24.2.1, SVG Export Plug-In . SVG Version: 6.00 Build 0)  -->
<svg version="1.1" id="Layer_1" xmlns="http://www.w3.org/2000/svg" xmlns:xlink="http://www.w3.org/1999/xlink" x="0px" y="0px"
	 viewBox="0 0 960 960" style="enable-background:new 0 0 960 960;" xml:space="preserve">
<style type="text/css">
	.st0{fill:none;}
	.st1{fill:#4B78BA;}
	.st2{fill:#EC9C80;}
</style>
<g>
	<path class="st0" d="M566.01,551.21l-2.5,2.29l14.28,15.38l2.5-2.29L566.01,551.21z M558.52,558.1l14.28,15.38l2.52-2.29
		l-14.28-15.38L558.52,558.1z M515.9,382.6l11.2,17.73l2.88-1.8l-11.2-17.73L515.9,382.6z M510.14,386.21l11.2,17.73l2.88-1.8
		l-11.2-17.73L510.14,386.21z M495.39,476.71l21,1.27l0.21-3.38l-21-1.27L495.39,476.71z M495.8,469.94l21,1.27l0.21-3.38l-21-1.27
		L495.8,469.94z M426.2,472.54l21,1.27l0.21-3.38l-21-1.27L426.2,472.54z M426.6,465.78l21,1.27l0.21-3.38l-21-1.27L426.6,465.78z
		 M433.19,357.96l21,1.27l0.21-3.38l-21-1.27L433.19,357.96z M433.61,351.23l21,1.27l0.21-3.38l-21-1.27L433.61,351.23z
		 M357.48,468.4l20.98,1.26l0.21-3.38l-20.98-1.26L357.48,468.4z M357.89,461.64l20.98,1.26l0.21-3.38l-20.98-1.26L357.89,461.64z
		 M286.72,464.13l21,1.27l0.21-3.38l-21-1.27L286.72,464.13z M287.14,457.38l21,1.27l0.21-3.38l-21-1.27L287.14,457.38z"/>
	<path class="st1" d="M420.85,557.25c1.88,1.04,2.72,2.43,3.67,3.62c4.48,5.58,9.65,10.47,15.18,14.97
		c5.36,4.36,11.12,8.17,17.35,11.17c4.29,2.08,8.79,3.73,13.39,5.04c8.52,2.44,17.18,2.99,25.96,2.05
		c6.62-0.71,12.93-2.55,19.04-5.15c6.17-2.61,11.96-5.86,17.26-9.99c4.41-3.44,8.62-7.1,12.48-11.18
		c6.75-7.14,12.4-15.04,17.31-23.51c0.75-1.3,1.39-2.66,2.07-4c0.16-0.33,0.31-0.69,0.15-1.2c-1.13,0.2-1.68,1.2-2.16,1.97
		c-2.21,3.56-5.38,6.33-7.97,9.58c-4.06,5.09-8.87,9.5-13.55,14.01c-3.97,3.82-8.1,7.5-12.8,10.46c-1.29,0.81-2.75,1.25-4.11,1.91
		c-3.59,1.79-7.02,3.85-10.71,5.45c-5.52,2.39-11.2,4.25-17.22,4.78c-5.85,0.51-11.7,0.72-17.51-0.27
		c-5.77-0.99-11.29-2.77-16.61-5.27c-5.14-2.43-10.14-5.09-14.64-8.59c-4.77-3.71-9.37-7.61-13.51-12.05
		c-4.56-4.88-8.69-10.06-12.51-15.49c-0.57-0.82-0.97-1.64-1.01-2.7c-0.37-12.42-0.76-24.83-1.14-37.25
		c-0.01-0.43,0.06-0.86,0.13-1.76c1.23,2.94,2.44,5.44,3.34,8.03c1.98,5.68,5.07,10.76,8.26,15.8c2.5,3.95,5.14,7.81,8.3,11.3
		c6.24,6.91,13.27,12.79,21.62,16.99c4.99,2.52,10.31,3.85,15.79,4.8c3.96,0.68,7.88,0.59,11.82,0.33c4.27-0.28,8.34-1.5,12.4-2.79
		c6.15-1.96,11.42-5.44,16.53-9.28c5.5-4.14,10.06-9.15,14.13-14.6c5.75-7.72,10.24-16.17,13.61-25.21
		c1.76-4.74,3.48-9.47,4.7-14.37c1.39-5.56,2.23-11.23,3.02-16.92c1.39-10.09,1.83-20.19,0.99-30.33
		c-0.48-5.63-1.19-11.26-2.31-16.83c-0.92-4.59-2.02-9.15-3.16-13.69c-1.15-4.6-3.02-9-4.82-13.4c-1.76-4.28-3.91-8.35-6.09-12.41
		c-2.39-4.45-5.34-8.57-8.6-12.48c-2.13-2.54-4.09-5.23-6.6-7.44c-3.97-3.48-7.77-7.19-12.44-9.8c-6.84-3.84-13.95-6.84-21.87-7.77
		c-3.28-0.38-6.51-0.63-9.77-0.33c-3.86,0.35-7.6,1.24-11.32,2.36c-5.96,1.81-11.24,4.88-16.34,8.29c-3.28,2.18-6.03,5.02-8.89,7.71
		c-3.11,2.92-5.58,6.35-8.14,9.72c-4.68,6.17-8.17,13.01-11.27,20.06c-3.11,7.06-5.22,14.44-6.99,21.94
		c-0.99,4.2-1.74,8.41-2.33,12.68c-1.59,11.57-1.92,23.2-1.53,34.86c1.67,51.62,3.28,103.25,4.93,154.87
		c0.03,0.68,0.05,1.36,0.05,2.05c0,0.37,0.05,0.8-0.39,0.96c-0.39,0.15-0.73-0.04-1.02-0.33c-1.27-1.3-2.55-2.59-3.79-3.9
		c-5.98-6.3-11.94-12.62-17.91-18.93c-1.22-1.28-1.57-2.8-1.62-4.55c-0.74-24.6-1.54-49.2-2.31-73.8
		c-0.89-28.39-1.88-56.77-2.64-85.16c-0.2-7.41-0.41-14.84,0.38-22.24c0.63-5.92,1.4-11.84,2.62-17.7c0.6-2.89,1.27-5.76,2.15-8.55
		c1.08-3.45,2.55-6.78,4.18-10.01c1.26-2.49,2.41-5.05,3.85-7.43c1.76-2.91,3.7-5.72,5.7-8.47c5.87-8.07,12.88-15.02,20.89-21
		c6.16-4.59,12.71-8.47,19.72-11.59c5.19-2.31,10.65-3.84,16.14-5.36c8.75-2.41,17.65-3,26.63-2.81c3.99,0.09,7.98,0.76,11.95,1.44
		c4.13,0.7,8.09,2,12.12,2.97c3.26,0.79,6.18,2.43,9.26,3.67c2.61,1.05,4.99,2.54,7.38,4c1.1,0.67,2.22,1.3,3.45,1.73
		c1.96,0.69,3.49,2.11,5.13,3.32c2.62,1.91,5.13,3.94,7.83,5.78c2.36,1.6,4.24,3.88,6.37,5.81c3.18,2.91,6.1,6.1,8.97,9.3
		c2.68,2.97,4.74,6.44,6.64,9.97c0.63,1.18,1.42,2.24,2.5,3.35c0.23-1.35-0.41-2.21-0.83-3.14c-0.93-2.07-1.71-4.21-2.74-6.21
		c-2.88-5.56-6.58-10.58-10.38-15.56c-3.47-4.55-7.54-8.53-11.91-12.09c-5.44-4.43-11.18-8.51-17.69-11.44
		c-4.91-2.21-9.8-4.41-14.97-5.93c-4.15-1.22-8.35-2.09-12.67-2.64c-5.53-0.71-11.04-1.15-16.58-1.04
		c-6.32,0.11-12.54,1.04-18.78,2.14c-5.5,0.97-10.78,2.62-15.93,4.59c-4.44,1.7-8.69,3.85-12.9,6.09
		c-9.65,5.15-18.12,11.79-25.72,19.56c-6.06,6.18-11.09,13.13-15.57,20.52c-4.07,6.7-6.91,13.89-9.43,21.23
		c-2.13,6.21-3.62,12.58-4.23,19.17c-0.36,4.06-0.81,8.11-0.98,12.2c-0.11,2.52,0.28,4.99,0.36,7.48
		c1.28,39.75,2.56,79.48,3.85,119.23c0.43,13.47,0.86,26.95,1.28,40.42c0.03,0.88,0.18,1.78-0.13,2.8
		c-1.12-0.09-1.57-0.97-2.14-1.58c-3.96-4.15-7.72-8.49-11.84-12.47c-3.54-3.42-6.39-7.45-10.19-10.6
		c-1.52-1.26-1.92-2.89-1.98-4.81c-0.63-21.28-1.32-42.54-1.99-63.82c-0.98-31.12-1.95-62.23-3-93.33c-0.07-2.16,0.48-3.65,2.1-5.13
		c2.45-2.24,4.52-4.89,6.92-7.19c5.51-5.29,10.67-10.92,15.96-16.41c4.66-4.84,9.39-9.63,14.07-14.46
		c3.61-3.75,7.03-7.68,10.82-11.28c4.55-4.32,8.83-8.91,13.16-13.44c5.02-5.23,10.09-10.43,15.11-15.65
		c3.25-3.37,6.36-6.9,9.78-10.1c3.3-3.11,6.16-6.64,9.4-9.8c1.36-1.32,2.75-2.58,4.17-3.82c0.79-0.7,1.71-1.09,2.78-1.39
		c9.53-2.63,19.25-3.59,29.09-3.44c2.8,0.04,5.61,0.37,8.4,0.63c3.09,0.28,6.14,0.83,9.21,1.38c4.03,0.73,7.95,1.92,11.92,2.92
		c1.02,0.25,1.64,1.06,2.28,1.79c3.97,4.45,7.91,8.93,11.89,13.38c4.93,5.52,9.98,10.94,14.76,16.6c4.04,4.79,8.39,9.31,12.45,14.08
		c6.03,7.06,12.41,13.81,18.55,20.79c3.24,3.69,6.66,7.23,9.79,10.99c4.55,5.45,9.58,10.46,14.02,15.99
		c1.24,1.53,2.71,2.84,4.02,4.32c1.64,1.87,3.2,3.84,4.84,5.71c0.52,0.59,0.52,1.2,0.54,1.89c0.61,19.76,1.23,39.51,1.86,59.27
		c0.89,28.24,1.77,56.48,2.7,84.7c0.06,1.75-0.2,3.14-1.53,4.49c-2.9,2.98-5.81,5.96-8.87,8.78c-2.05,1.89-3.82,4.08-5.86,5.97
		c-4.84,4.47-9.36,9.22-14.03,13.85c-6.07,6-12.12,12.02-18.14,18.09c-6,6.06-12.18,11.96-18.15,18.07
		c-4.22,4.32-8.76,8.33-12.8,12.83c-2.06,2.3-4.48,4.3-6.72,6.44c-1.71,1.62-3.94,2.24-6.04,3.08c-4.6,1.82-9.41,2.96-14.29,3.74
		c-5.48,0.88-10.99,1.59-16.56,1.55c-7.69-0.06-15.35-0.65-22.86-2.34c-7.41-1.66-14.46-4.4-21.31-7.74
		c-6.61-3.22-12.35-7.6-17.84-12.37c-2.18-1.9-3.7-4.4-5.69-6.49c-0.45-0.48-0.5-1.09-0.51-1.7c-0.19-6.36-0.39-12.71-0.57-19.08
		c0-0.22,0.06-0.44,0.12-0.84c1.39,0.34,2.34,1.35,3.25,2.23c5.95,5.7,12.8,10.12,19.97,14.12c7.14,3.98,14.83,6.5,22.68,8.52
		c3.86,1,7.84,1.63,11.89,1.86c3.64,0.21,7.25,0.54,10.92,0.41c6.18-0.24,12.21-1.2,18.23-2.57c5.2-1.19,10.19-2.94,15.09-4.96
		c7.31-3,14.06-6.96,20.55-11.53c5.85-4.13,11.27-8.72,16.15-13.87c4.68-4.92,9.15-10.06,12.89-15.81
		c2.55-3.93,5.12-7.83,7.51-11.86c1.27-2.14,2.26-4.44,3.33-6.69c0.8-1.69,1.55-3.42,2.42-5.33c-3.05,3.52-4.89,7.58-7.54,11.08
		c-2.43,3.19-4.73,6.48-7.28,9.56c-2.27,2.74-4.83,5.22-7.2,7.87c-4.47,4.95-9.37,9.44-14.6,13.54c-5.1,4.01-10.31,7.98-16.12,10.96
		c-6.05,3.1-12.19,6.01-18.7,8.19c-5.8,1.94-11.7,3.11-17.76,3.79c-3.1,0.36-6.2,0.74-9.31,0.69c-6.54-0.13-13.07-0.45-19.44-1.99
		c-5.15-1.25-10.14-3.02-15-5.18c-5.71-2.53-11.12-5.53-16.1-9.26c-4.66-3.49-9.32-7.01-13.06-11.53c-0.05-0.06-0.09-0.14-0.14-0.17
		c-3-1.82-3.28-4.68-3.31-7.85c-0.08-7.35-0.42-14.68-0.65-22.02C420.92,559.38,420.9,558.55,420.85,557.25z"/>
	<path class="st2" d="M547.87,455.77c-0.24,5.34-0.33,10.92-0.9,16.49c-0.46,4.52-1.1,8.99-1.95,13.41
		c-0.76,3.97-1.71,7.95-3.05,11.8c-0.72,2.06-1.11,4.21-1.87,6.28c-2.04,5.6-4.63,10.94-7.37,16.23
		c-2.98,5.74-7.01,10.73-10.93,15.81c-1.21,1.57-2.8,2.75-4.19,4.15c-5.09,5.07-11.02,9.02-17.65,11.69
		c-8.16,3.3-16.61,4.39-25.4,2.36c-6.99-1.61-13.4-4.46-19.09-8.63c-5.48-4.03-10.3-8.8-14.41-14.31
		c-2.79-3.76-5.38-7.63-7.69-11.68c-1.43-2.49-2.45-5.2-3.68-7.79c-2.34-4.9-4.13-10-5.68-15.18c-1.29-4.31-2.41-8.71-2.77-13.24
		c-0.12-1.56-0.85-3-0.98-4.62c-0.34-4.36-1.08-8.69-1.4-13.06c-0.29-4-0.45-8-0.09-12.02c0.21-2.48,0.31-4.97,0.48-7.46
		c0.13-1.88,0.15-3.79,0.47-5.64c0.95-5.42,1.4-10.93,2.83-16.26c1.88-6.99,4.27-13.8,7.08-20.51c2.93-7.03,7.06-13.32,11.39-19.5
		c1.86-2.66,4.29-4.86,6.43-7.27c2.89-3.25,6.41-5.77,9.97-8.17c4.83-3.25,9.94-5.92,15.86-6.89c3.22-0.53,6.38-1.26,9.67-1.35
		c1.47-0.05,2.89,0.12,4.31,0.39c4.52,0.82,9.09,1.24,13.35,3.4c3.78,1.92,7.38,4,10.84,6.46c7.46,5.3,13.17,12.11,18.03,19.72
		c3.66,5.74,6.83,11.73,9.29,18.09c0.92,2.38,1.69,4.83,2.43,7.27c1.02,3.39,2.04,6.78,2.87,10.2c0.99,4.09,1.6,8.28,2.26,12.45
		C547.23,444.09,547.51,449.8,547.87,455.77z"/>
	<path class="st1" d="M620.98,547.68c-0.63-3.6-4.51-131.19-4.05-132.99c5.84,6.6,11.55,13.22,17.43,19.64
		c2.71,2.96,5.13,6.15,7.92,9.02c1.06,1.1,1.31,2.28,1.36,3.68c0.39,12.86,0.8,25.73,1.22,38.59c0.36,11.57,0.71,23.16,1.13,34.74
		c0.06,1.7-0.31,2.9-1.67,4.13c-2.75,2.47-5.12,5.35-7.83,7.87c-4.6,4.28-8.67,9.08-13.43,13.18
		C622.38,546.12,621.81,546.8,620.98,547.68z"/>
	<path class="st1" d="M351.24,561.08c-2.19-1.61-3.72-3.3-5.17-5.02c-2.84-3.36-6.14-6.24-9.05-9.52c-2.2-2.49-4.54-4.87-6.85-7.24
		c-1.17-1.22-1.67-2.55-1.72-4.26c-0.68-23-1.42-46.01-2.15-69.01c-0.29-9.38-0.56-18.77-0.93-28.15c-0.08-1.74,0.4-3.02,1.6-4.23
		c4.3-4.34,8.57-8.73,12.8-13.14c1.83-1.9,3.49-3.97,5.53-5.67c0.35-0.28,0.62-0.64,1.27-0.6
		C348.12,463.06,349.67,511.88,351.24,561.08z"/>
	<path class="st1" d="M423.35,630.14c0.62,0.43,0.96,0.61,1.22,0.88c3.4,3.48,7.21,6.4,11.34,9.01c5.53,3.47,11.23,6.51,17.41,8.69
		c5.29,1.86,10.61,3.54,16.09,4.65c3.48,0.7,7.01,1.12,10.56,1.53c4.85,0.56,9.69,0.7,14.55,0.52c6.46-0.23,12.83-1.19,19.12-2.64
		c0.37-0.09,0.73-0.21,1.09,0.09c0.19,0.83-0.54,1.2-1.02,1.58c-3.64,2.98-6.49,6.74-9.99,9.86c-3.78,3.39-6.98,7.33-10.77,10.7
		c-3.56,3.17-6.54,6.89-10.09,10.06c-2.14,1.91-4.17,3.94-6.12,6.04c-1.26,1.36-1.34,1.33-2.63-0.02
		c-3.65-3.81-7.28-7.64-10.91-11.47c-4.84-5.08-9.76-10.06-14.47-15.26c-3.09-3.41-6.48-6.54-9.52-9.99
		c-3.7-4.2-7.81-7.99-11.53-12.16c-1.15-1.3-2.16-2.71-3.51-3.84c-0.39-0.33-0.74-0.76-0.76-1.35
		C423.32,634.86,423.13,632.68,423.35,630.14z"/>
	<path class="st1" d="M321.33,529.68c-3.71-3.34-6.74-6.91-9.98-10.28c-3.88-4.01-7.64-8.14-11.5-12.17
		c-0.86-0.89-1.24-1.8-1.27-3.01c-0.38-12.71-0.78-25.41-1.21-38.12c-0.04-1.3,0.37-2.22,1.3-3.18
		c5.34-5.45,10.58-10.99,15.88-16.47c1.19-1.22,2.5-2.32,3.82-3.55C318.97,444.73,321.71,526.02,321.33,529.68z"/>
	<path class="st1" d="M652.59,516.01c-0.67-21.01-1.32-41.7-1.99-62.57c1.41,0.51,2.16,1.58,2.96,2.48
		c8.26,9.32,16.46,18.72,24.86,27.93c0.66,0.72,1.22,1.53,1.88,2.26c0.97,1.07,0.87,1.61-0.09,2.73c-2.44,2.9-5.41,5.27-8.05,7.97
		c-5.11,5.23-10.31,10.4-15.5,15.56C655.46,513.58,654.13,514.66,652.59,516.01z"/>
	<path class="st1" d="M508.08,292.38c-1.99,0.57-3.91-0.13-5.85-0.32c-3.39-0.35-6.75-1.02-10.17-1.16
		c-5.55-0.24-11.08-0.52-16.6,0.08c-3.46,0.37-6.93,0.68-10.55,1.04c0.98-2.3,2.8-3.73,4.36-5.28c3.76-3.72,7.26-7.69,11.07-11.35
		c2.23-2.15,4.27-4.47,6.58-6.79c3.91,3.76,7.17,7.97,10.77,11.88c3.58,3.88,7.07,7.81,10.36,11.93L508.08,292.38z"/>
	<path class="st1" d="M290.82,471.59c0.28,8.77,0.56,17.49,0.84,26.23c-0.7,0.17-0.99-0.29-1.37-0.64c-3.35-3.06-6.16-6.62-9.3-9.87
		c-0.74-0.76-1.52-1.46-2.26-2.21c-0.49-0.5-0.58-1.01-0.04-1.57c3.81-3.97,7.51-8.06,11.62-11.74
		C290.38,471.69,290.54,471.68,290.82,471.59z"/>
</g>
</svg>
