<?xml version="1.0" encoding="utf-8"?>
<!-- Generator: Adobe Illustrator 24.2.1, SVG Export Plug-In . SVG Version: 6.00 Build 0)  -->
<svg version="1.1" id="Layer_1" xmlns="http://www.w3.org/2000/svg" xmlns:xlink="http://www.w3.org/1999/xlink" x="0px" y="0px"
	 viewBox="0 0 960 960" style="enable-background:new 0 0 960 960;" xml:space="preserve">
<style type="text/css">
	.st0{fill:#B34418;}
	.st1{fill:#232324;}
	.st2{fill:#F8AD1D;}
</style>
<g>
	<path class="st0" d="M377.25,539.89c-4.63,9-10.61,18.28-18.16,27.76l-37.37-40.22c7.18-12.12,10.63-23.86,11.72-34.71
		c0.07-0.8,0.14-1.58,0.19-2.36c2.9,1.49,6.19,2.36,9.67,2.42c12.14,0.22,22.15-9.41,22.37-21.46c0.23-12.08-9.42-22.01-21.57-22.23
		c-6.08-0.11-11.63,2.23-15.66,6.13c-3.07-8.56-6.89-15.2-9.53-19.27l35.51-35.55C370.59,417.47,412.54,471.3,377.25,539.89z"/>
	<path class="st1" d="M333.63,490.33c-0.04,0.77-0.11,1.56-0.19,2.36c-1.1,10.86-4.55,22.6-11.72,34.71l-45.36-48.84l22.79-22.84
		l19.77-19.81c2.63,4.08,6.44,10.72,9.53,19.27c-4.03,3.9-6.59,9.3-6.7,15.31C321.58,479.1,326.44,486.62,333.63,490.33z"/>
	<path class="st2" d="M497.35,281.3l-128.09,115.2c-2.03-2.06-3.9-3.85-5.56-5.38l122.08-122.31L497.35,281.3z"/>
	<path class="st2" d="M549.59,337.56l-160.37,85.15c-3.25-5.55-6.7-10.53-10.11-14.89l127.23-116.83L549.59,337.56z"/>
	<path class="st2" d="M607.96,400.42l-207.05,48.75c-1.71-5.7-3.82-11.06-6.17-16.04l163.85-85.89L607.96,400.42z"/>
	<path class="st2" d="M683.51,481.8l-0.8,0.81l-276.85-2.95c-0.14-5.05-0.6-9.95-1.35-14.65l215.34-51.75L683.51,481.8z"/>
	<path class="st2" d="M667.16,498.2l-62.82,62.92l-200.96-53.43c1.23-6.12,1.98-11.98,2.32-17.67L667.16,498.2z"/>
	<path class="st2" d="M591.57,573.91l-48.96,49.03l-146.28-91.43c1.71-4.47,3.18-8.85,4.4-13.13L591.57,573.91z"/>
	<path class="st2" d="M531.84,633.71l-34.97,35L385.04,555.74c1.48-2.78,5.25-10.41,6.51-13.13L531.84,633.71z"/>
	<path class="st2" d="M489.03,677.8l-8.68,8.71l-6,5.65l-0.05-0.08L370.76,577.81c2.33-3.32,5.73-8.43,7.74-11.68L489.03,677.8z"/>
</g>
</svg>
