<?xml version="1.0" encoding="utf-8"?>
<!-- Generator: Adobe Illustrator 24.2.1, SVG Export Plug-In . SVG Version: 6.00 Build 0)  -->
<svg version="1.1" id="Layer_1" xmlns="http://www.w3.org/2000/svg" xmlns:xlink="http://www.w3.org/1999/xlink" x="0px" y="0px"
	 viewBox="0 0 960 960" style="enable-background:new 0 0 960 960;" xml:space="preserve">
<style type="text/css">
	.st0{fill:#B34418;}
	.st1{fill:#232324;}
	.st2{fill:#F8AD1D;}
</style>
<g>
	<path class="st0" d="M252.47,612.07c-10.26,19.94-23.5,40.49-40.23,61.49l-82.78-89.09c15.9-26.85,23.55-52.85,25.96-76.89
		c0.16-1.77,0.31-3.5,0.42-5.23c6.42,3.3,13.71,5.23,21.42,5.36c26.89,0.49,49.07-20.84,49.55-47.54
		c0.51-26.76-20.87-48.76-47.78-49.24c-13.47-0.24-25.76,4.94-34.69,13.58c-6.8-18.96-15.26-33.67-21.11-42.69l78.66-78.75
		C237.72,340.9,330.65,460.14,252.47,612.07z"/>
	<path class="st1" d="M155.85,502.29c-0.09,1.71-0.24,3.46-0.42,5.23c-2.44,24.06-10.08,50.06-25.96,76.89L28.99,476.22l50.48-50.59
		l43.79-43.88c5.83,9.04,14.27,23.75,21.11,42.69c-8.93,8.64-14.6,20.6-14.84,33.91C129.16,477.42,139.92,494.07,155.85,502.29z"/>
	<path class="st2" d="M518.51,39.26L234.78,294.45c-4.5-4.56-8.64-8.53-12.32-11.92L492.88,11.6L518.51,39.26z"/>
	<path class="st2" d="M634.23,163.89L278.99,352.51c-7.2-12.29-14.84-23.33-22.39-32.98L538.43,60.73L634.23,163.89z"/>
	<path class="st2" d="M763.53,303.13L304.88,411.12c-3.79-12.63-8.46-24.5-13.67-35.53l362.95-190.26L763.53,303.13z"/>
	<path class="st2" d="M930.88,483.4l-1.77,1.79l-613.26-6.53c-0.31-11.19-1.33-22.04-2.99-32.45l477.01-114.63L930.88,483.4z"/>
	<path class="st2" d="M894.66,519.73L755.51,659.1L310.36,540.75c2.72-13.56,4.39-26.54,5.14-39.14L894.66,519.73z"/>
	<path class="st2" d="M727.22,687.43L618.77,796.04L294.74,593.51c3.79-9.9,7.04-19.6,9.75-29.08L727.22,687.43z"/>
	<path class="st2" d="M594.91,819.9l-77.46,77.53L269.73,647.18c3.28-6.16,11.63-23.06,14.42-29.08L594.91,819.9z"/>
	<path class="st2" d="M500.08,917.56l-19.23,19.29l-13.29,12.52l-0.11-0.18L238.1,696.07c5.16-7.35,12.69-18.67,17.15-25.87
		L500.08,917.56z"/>
</g>
</svg>
