<?xml version="1.0" encoding="utf-8"?>
<!-- Generator: Adobe Illustrator 24.2.1, SVG Export Plug-In . SVG Version: 6.00 Build 0)  -->
<svg version="1.1" id="Layer_1" xmlns="http://www.w3.org/2000/svg" xmlns:xlink="http://www.w3.org/1999/xlink" x="0px" y="0px"
	 viewBox="0 0 960 960" style="enable-background:new 0 0 960 960;" xml:space="preserve">
<style type="text/css">
	.st0{fill:none;stroke:#1A0C00;stroke-width:3;stroke-miterlimit:10;}
</style>
<g>
	<path class="st0" d="M570.47,526.62l-83.14,83.26L409.37,525C434.52,512.56,499.86,488.17,570.47,526.62z"/>
	<path class="st0" d="M568.9,263.93l-1.99,95.33c-10.75-1.67-21.39-2.94-31.87-3.85l2.62-125.52L568.9,263.93z"/>
	<path class="st0" d="M642.9,344.52l-0.68,32.44c-5.67-1.84-11.34-3.54-16.99-5.12c-14.77-4.19-29.44-7.54-43.94-10.18l1.72-82.36
		L642.9,344.52z"/>
	<path class="st0" d="M689.48,395.25c-10.95-4.97-21.95-9.41-32.92-13.35l0.46-22L689.48,395.25z"/>
	<path class="st0" d="M586.84,718.28c-4.62,8.97-10.58,18.21-18.09,27.64l-36.99-40.27c7.15-12.07,10.61-23.78,11.73-34.62
		c0.07-0.8,0.14-1.58,0.19-2.35c2.88,1.5,6.13,2.37,9.59,2.45c12.05,0.25,22.01-9.32,22.26-21.35c0.25-12.05-9.3-22.01-21.35-22.26
		c-6.04-0.13-11.55,2.2-15.56,6.08c-3.04-8.54-6.81-15.19-9.41-19.26l35.33-35.37C580.52,596.06,622.02,649.92,586.84,718.28z"/>
	<path class="st0" d="M523.54,214.51l-2.92,139.76c-21.26-1.33-41.79-1.34-61.3-0.48l2.85-136.41l33.35-33.39L523.54,214.51z"/>
	<path class="st0" d="M447.42,232.16l-2.56,122.45c-11.91,0.83-23.38,1.98-34.3,3.36l1.9-90.78L447.42,232.16z"/>
	<path class="st0" d="M411.67,506.7c-7.7,3.69-12.22,6.56-12.75,6.91l-88.77-96.7l-0.92-0.99l7.43-24.18l0.03-0.03l53.98,22.75
		C370.67,414.47,403.48,488.74,411.67,506.7z"/>
	<path class="st0" d="M310.71,393.48l-5.83,17.7l-11.25-12.24C297.91,397.48,303.69,395.58,310.71,393.48z"/>
	<path class="st0" d="M673.94,426.93l-92.42,88.61c-6.62-4.18-13.22-7.79-19.75-10.89l41.91-82.24l69.03-19.54l0.03,0l0,0.03
		L673.94,426.93z"/>
	<path class="st0" d="M690.85,410.71L679.4,421.7l-0.99-16.46c3.08,1.28,6.15,2.62,9.23,4.02
		C688.71,409.73,689.78,410.22,690.85,410.71z"/>
	<path class="st0" d="M543.67,668.68c-0.04,0.77-0.12,1.55-0.19,2.35c-1.11,10.84-4.57,22.55-11.73,34.62l-44.9-48.89l22.67-22.72
		l19.67-19.71c2.6,4.07,6.37,10.72,9.41,19.26c-4.02,3.88-6.57,9.26-6.69,15.27C531.74,657.43,536.54,664.96,543.67,668.68z"/>
	<path class="st0" d="M706.66,460.54l-127.42,114.6c-2.01-2.07-3.86-3.85-5.51-5.38L695.2,448.05L706.66,460.54z"/>
	<path class="st0" d="M758.39,516.86l-159.38,84.5c-3.21-5.55-6.63-10.53-10-14.9l126.56-116.22L758.39,516.86z"/>
	<path class="st0" d="M816.16,579.79l-205.62,48.03c-1.68-5.69-3.76-11.05-6.09-16.04l162.83-85.23L816.16,579.79z"/>
	<path class="st0" d="M890.95,661.25l-0.79,0.81l-274.77-3.8c-0.12-5.05-0.57-9.93-1.3-14.63l213.86-50.99L890.95,661.25z"/>
	<path class="st0" d="M874.68,677.57l-62.5,62.6l-199.33-53.94c1.24-6.1,2-11.96,2.34-17.63L874.68,677.57z"/>
	<path class="st0" d="M799.46,752.91l-48.72,48.79L605.8,709.97c1.7-4.45,3.18-8.83,4.4-13.1L799.46,752.91z"/>
	<path class="st0" d="M740.05,812.42l-34.79,34.83L594.53,734.14c1.47-2.77,5.24-10.38,6.49-13.09L740.05,812.42z"/>
	<path class="st0" d="M575.52,649.78c-0.25,12.02-10.21,21.6-22.26,21.35c-3.46-0.07-6.71-0.94-9.59-2.45
		c-7.13-3.72-11.93-11.25-11.75-19.81c0.13-6.01,2.68-11.39,6.69-15.27c4.02-3.88,9.53-6.2,15.56-6.08
		C566.23,627.78,575.77,637.73,575.52,649.78z"/>
	<path class="st0" d="M397.71,281.95l-1.63,78.01c-12.65,1.87-24.5,4.03-35.36,6.3c-12.75,2.64-24.2,5.43-34.06,8.07l0.55-26.43
		L397.71,281.95z"/>
	<path class="st0" d="M312.49,361.7l-0.35,16.7c-6.22,1.87-11.49,3.56-15.68,4.97c-7.03,2.37-11.03,3.93-11.5,4.11L312.49,361.7z"/>
	<path class="st0" d="M697.45,856.28l-8.63,8.66l-5.97,5.61l-0.05-0.08L580.29,756.1c2.31-3.31,5.71-8.4,7.72-11.63L697.45,856.28z"
		/>
	<path class="st0" d="M463.53,490.63c-19.49,3.03-35.74,8.84-47.07,13.87l-41.12-89.33l32.73-42.22l41.9,25.35L463.53,490.63z"/>
	<path class="st0" d="M526.29,406.36l-14.25,83.57c-15.92-2.11-30.92-1.7-44.49,0.15c-2.68-17.63-12.42-90.14-12.42-90.14
		l38.04-29.91L526.29,406.36z"/>
	<path class="st0" d="M601.01,418.37l-42.4,84.86c-14.41-6.51-28.49-10.49-42-12.66l13.35-83.23l49.11-27.74L601.01,418.37z"/>
	<polyline class="st0" points="316.65,391.75 316.65,391.72 316.68,391.72 	"/>
	<path class="st0" d="M400.71,373.66l-28.72,36.23l-48.02-20.21c5.49-1.49,11.51-3.03,17.97-4.59
		C359.09,381,377.75,376.84,400.71,373.66z"/>
	<path class="st0" d="M486.79,367.9l-32.48,27.89l-40.35-24.18C435.68,369.6,460.49,367.84,486.79,367.9z"/>
	<path class="st0" d="M575.45,375.57l-45.99,26.56l-30.16-34.05C524.5,368.71,548.41,370.79,575.45,375.57z"/>
	<path class="st0" d="M666.84,400.54l-61.03,16.07l-22.08-39.5c20.43,3.78,39.5,8.41,60.36,15.27
		C651.66,394.87,659.25,397.58,666.84,400.54z"/>
	<path class="st0" d="M230.91,736.22c1.91,0.96,2.79,2.32,3.79,3.47c4.66,5.39,9.98,10.06,15.65,14.33
		c5.49,4.13,11.35,7.71,17.64,10.47c4.34,1.9,8.86,3.37,13.48,4.51c8.54,2.1,17.16,2.31,25.83,1.03c6.54-0.97,12.72-3.06,18.68-5.88
		c6.02-2.85,11.63-6.31,16.71-10.63c4.25-3.61,8.27-7.43,11.93-11.64c6.41-7.38,11.71-15.49,16.24-24.13
		c0.69-1.32,1.27-2.71,1.89-4.07c0.15-0.34,0.29-0.7,0.1-1.2c-1.12,0.24-1.62,1.26-2.06,2.04c-2.06,3.64-5.08,6.52-7.53,9.86
		c-3.83,5.23-8.42,9.83-12.89,14.5c-3.78,3.96-7.73,7.8-12.28,10.94c-1.26,0.87-2.68,1.35-4,2.07c-3.49,1.92-6.82,4.12-10.41,5.86
		c-5.38,2.61-10.93,4.68-16.89,5.45c-5.78,0.74-11.58,1.18-17.38,0.42c-5.76-0.76-11.31-2.32-16.68-4.6
		c-5.2-2.22-10.25-4.68-14.86-7.99c-4.89-3.52-9.58-7.22-13.88-11.49c-4.72-4.69-9.01-9.69-13.02-14.97c-0.61-0.8-1.03-1.6-1.1-2.65
		c-0.85-12.37-1.74-24.73-2.62-37.1c-0.03-0.43,0.02-0.87,0.05-1.75c1.34,2.89,2.63,5.33,3.64,7.88c2.19,5.58,5.46,10.53,8.82,15.43
		c2.63,3.85,5.41,7.58,8.68,10.94c6.46,6.64,13.66,12.23,22.12,16.1c5.05,2.31,10.38,3.44,15.85,4.17
		c3.94,0.53,7.83,0.28,11.73-0.14c4.22-0.45,8.21-1.83,12.18-3.27c6.03-2.2,11.12-5.87,16.03-9.91c5.29-4.34,9.62-9.53,13.43-15.12
		c5.4-7.93,9.51-16.52,12.5-25.68c1.56-4.79,3.08-9.59,4.09-14.51c1.15-5.6,1.77-11.29,2.32-16.99c0.98-10.11,1.02-20.22-0.23-30.29
		c-0.69-5.6-1.63-11.19-2.96-16.7c-1.1-4.55-2.37-9.04-3.68-13.52c-1.32-4.54-3.35-8.86-5.32-13.18c-1.91-4.19-4.21-8.18-6.53-12.14
		c-2.54-4.34-5.64-8.35-9.03-12.11c-2.21-2.46-4.25-5.06-6.84-7.16c-4.08-3.32-8-6.86-12.72-9.29c-6.94-3.56-14.11-6.27-22-6.9
		c-3.26-0.26-6.48-0.36-9.7,0.06c-3.81,0.5-7.49,1.53-11.14,2.8c-5.83,2.04-10.96,5.31-15.88,8.91c-3.16,2.31-5.78,5.25-8.51,8.05
		c-2.96,3.04-5.28,6.56-7.68,10.01c-4.4,6.34-7.59,13.3-10.38,20.46c-2.8,7.17-4.61,14.61-6.06,22.15
		c-0.81,4.22-1.39,8.46-1.81,12.74c-1.12,11.61-0.98,23.21-0.14,34.83c3.7,51.42,7.36,102.85,11.03,154.28
		c0.05,0.68,0.1,1.36,0.13,2.04c0.02,0.37,0.08,0.8-0.36,0.97c-0.38,0.16-0.73-0.01-1.02-0.29c-1.31-1.25-2.63-2.48-3.92-3.74
		c-6.18-6.05-12.34-12.11-18.51-18.17c-1.25-1.23-1.67-2.74-1.8-4.48c-1.71-24.51-3.48-49.01-5.23-73.52
		c-2.02-28.28-4.12-56.55-6-84.83c-0.49-7.37-1-14.79-0.51-22.19c0.4-5.93,0.91-11.86,1.89-17.75c0.48-2.9,1.03-5.79,1.79-8.61
		c0.93-3.49,2.26-6.86,3.75-10.15c1.15-2.53,2.19-5.13,3.52-7.56c1.63-2.97,3.44-5.85,5.32-8.67c5.5-8.28,12.17-15.49,19.89-21.76
		c5.92-4.81,12.27-8.94,19.09-12.33c5.06-2.51,10.41-4.25,15.79-5.97c8.58-2.74,17.39-3.69,26.3-3.85
		c3.97-0.07,7.94,0.44,11.91,0.97c4.12,0.54,8.09,1.67,12.14,2.48c3.26,0.65,6.23,2.18,9.34,3.29c2.64,0.94,5.05,2.34,7.48,3.71
		c1.11,0.62,2.25,1.21,3.49,1.59c1.98,0.61,3.54,1.97,5.22,3.11c2.67,1.81,5.25,3.74,8,5.46c2.4,1.5,4.36,3.7,6.54,5.55
		c3.27,2.78,6.29,5.84,9.27,8.92c2.78,2.86,4.96,6.24,6.98,9.69c0.67,1.14,1.5,2.18,2.61,3.24c0.17-1.36-0.49-2.18-0.94-3.09
		c-1-2.02-1.86-4.13-2.97-6.08c-3.08-5.43-6.95-10.29-10.91-15.11c-3.62-4.41-7.82-8.21-12.29-11.59
		c-5.57-4.2-11.43-8.04-17.99-10.72c-4.95-2.02-9.9-4.01-15.08-5.33c-4.16-1.06-8.37-1.75-12.67-2.14
		c-5.5-0.5-10.99-0.71-16.49-0.39c-6.26,0.36-12.4,1.53-18.53,2.88c-5.42,1.19-10.58,3.04-15.61,5.2
		c-4.33,1.87-8.47,4.18-12.56,6.59c-9.37,5.51-17.49,12.47-24.74,20.51c-5.77,6.4-10.47,13.54-14.63,21.08
		c-3.76,6.84-6.3,14.13-8.5,21.55c-1.86,6.28-3.1,12.69-3.43,19.29c-0.2,4.07-0.48,8.13-0.49,12.21c0,2.51,0.48,4.96,0.66,7.45
		c2.84,39.59,5.7,79.17,8.55,118.76c0.97,13.42,1.92,26.84,2.87,40.27c0.06,0.88,0.25,1.78-0.02,2.79
		c-1.11-0.05-1.59-0.91-2.18-1.49c-4.09-3.98-7.99-8.16-12.23-11.97c-3.64-3.26-6.63-7.18-10.53-10.16
		c-1.55-1.19-2.02-2.8-2.15-4.73c-1.46-21.19-3-42.38-4.51-63.57c-2.21-30.99-4.41-61.98-6.69-92.97c-0.16-2.15,0.33-3.66,1.88-5.2
		c2.35-2.32,4.29-5.05,6.57-7.44c5.25-5.5,10.14-11.31,15.17-16.99c4.43-5.01,8.94-9.97,13.37-14.98
		c3.44-3.88,6.67-7.94,10.28-11.67c4.34-4.49,8.4-9.23,12.52-13.92c4.76-5.42,9.59-10.79,14.37-16.19
		c3.09-3.49,6.04-7.12,9.29-10.46c3.15-3.24,5.84-6.87,8.93-10.15c1.29-1.37,2.63-2.68,3.99-3.98c0.76-0.72,1.66-1.15,2.71-1.49
		c9.34-3,18.94-4.33,28.71-4.57c2.78-0.07,5.57,0.15,8.36,0.3c3.08,0.16,6.13,0.59,9.19,1.02c4.03,0.57,7.96,1.61,11.94,2.44
		c1.02,0.21,1.66,0.99,2.33,1.69c4.11,4.29,8.2,8.59,12.32,12.88c5.1,5.32,10.33,10.52,15.29,15.97c4.2,4.62,8.68,8.95,12.9,13.55
		c6.26,6.8,12.86,13.29,19.22,20c3.36,3.55,6.88,6.95,10.15,10.58c4.73,5.25,9.91,10.06,14.55,15.4c1.28,1.47,2.81,2.73,4.15,4.15
		c1.71,1.8,3.32,3.7,5.02,5.5c0.53,0.56,0.56,1.18,0.61,1.86c1.39,19.68,2.79,39.36,4.2,59.04c2.01,28.13,4,56.25,6.05,84.38
		c0.13,1.74-0.07,3.14-1.34,4.54c-2.77,3.08-5.52,6.17-8.45,9.11c-1.96,1.97-3.63,4.21-5.58,6.18c-4.61,4.64-8.92,9.57-13.37,14.37
		c-5.78,6.23-11.55,12.47-17.27,18.76c-5.72,6.28-11.6,12.42-17.29,18.73c-4.02,4.47-8.35,8.65-12.18,13.3
		c-1.96,2.38-4.26,4.46-6.41,6.68c-1.63,1.68-3.82,2.4-5.86,3.31c-4.49,2-9.22,3.32-14.03,4.3c-5.4,1.09-10.83,2.02-16.36,2.2
		c-7.63,0.24-15.25-0.05-22.76-1.43c-7.42-1.36-14.52-3.82-21.44-6.87c-6.69-2.95-12.55-7.09-18.18-11.64
		c-2.23-1.81-3.84-4.25-5.89-6.25c-0.47-0.46-0.54-1.07-0.58-1.67c-0.45-6.33-0.89-12.67-1.33-19c-0.02-0.22,0.05-0.45,0.09-0.83
		c1.4,0.29,2.37,1.26,3.31,2.09c6.13,5.45,13.09,9.6,20.37,13.3c7.24,3.68,14.97,5.9,22.82,7.61c3.87,0.84,7.85,1.32,11.87,1.39
		c3.62,0.07,7.22,0.26,10.84-0.02c6.11-0.48,12.06-1.67,17.97-3.28c5.11-1.39,9.99-3.34,14.77-5.53c7.14-3.27,13.67-7.5,19.91-12.31
		c5.64-4.35,10.83-9.15,15.47-14.47c4.44-5.1,8.68-10.39,12.16-16.27c2.38-4.01,4.77-8.02,6.98-12.12c1.18-2.18,2.07-4.52,3.05-6.8
		c0.73-1.72,1.4-3.46,2.18-5.41c-2.89,3.63-4.55,7.75-7.05,11.35c-2.28,3.28-4.43,6.65-6.84,9.82c-2.14,2.82-4.58,5.4-6.84,8.12
		c-4.24,5.11-8.92,9.78-13.95,14.08c-4.91,4.2-9.91,8.37-15.55,11.56c-5.88,3.33-11.86,6.48-18.21,8.9
		c-5.68,2.16-11.49,3.55-17.47,4.48c-3.06,0.47-6.12,0.98-9.21,1.05c-6.49,0.13-12.99,0.06-19.37-1.22
		c-5.16-1.04-10.18-2.61-15.08-4.57c-5.75-2.3-11.24-5.08-16.33-8.61c-4.76-3.3-9.52-6.63-13.41-10.99
		c-0.05-0.06-0.09-0.13-0.15-0.17c-3.05-1.7-3.44-4.53-3.6-7.7c-0.37-7.32-1-14.63-1.52-21.94
		C231.06,738.33,231,737.51,230.91,736.22z"/>
	<path class="st0" d="M352.85,630c-0.03,5.34,0.11,10.9-0.24,16.49c-0.28,4.52-0.74,9.01-1.4,13.46c-0.6,3.99-1.37,8-2.56,11.88
		c-0.64,2.08-0.94,4.24-1.6,6.33c-1.8,5.67-4.15,11.09-6.66,16.47c-2.73,5.85-6.53,10.98-10.21,16.2c-1.13,1.61-2.66,2.86-3.99,4.29
		c-4.85,5.25-10.58,9.42-17.04,12.35c-7.96,3.61-16.3,5.03-25.1,3.36c-7-1.33-13.46-3.92-19.28-7.86
		c-5.59-3.8-10.57-8.37-14.86-13.7c-2.92-3.64-5.64-7.4-8.09-11.35c-1.51-2.43-2.63-5.09-3.96-7.63c-2.52-4.79-4.5-9.81-6.24-14.91
		c-1.46-4.25-2.73-8.59-3.27-13.09c-0.19-1.56-0.96-2.96-1.15-4.58c-0.51-4.34-1.42-8.63-1.9-12.96c-0.44-3.97-0.76-7.97-0.56-11.98
		c0.12-2.48,0.11-4.97,0.18-7.46c0.05-1.88,0-3.78,0.25-5.64c0.72-5.44,0.95-10.96,2.16-16.34c1.59-7.05,3.69-13.94,6.2-20.73
		c2.63-7.13,6.47-13.56,10.52-19.9c1.74-2.72,4.06-5.01,6.1-7.51c2.73-3.36,6.13-6.01,9.56-8.54c4.66-3.43,9.63-6.3,15.46-7.49
		c3.17-0.65,6.29-1.51,9.54-1.73c1.45-0.1,2.88,0.01,4.29,0.21c4.52,0.63,9.07,0.88,13.38,2.87c3.83,1.77,7.48,3.7,11.01,6.02
		c7.61,5,13.54,11.55,18.66,18.96c3.86,5.58,7.25,11.43,9.92,17.68c1,2.34,1.87,4.75,2.7,7.16c1.14,3.34,2.3,6.68,3.26,10.07
		c1.15,4.05,1.92,8.19,2.74,12.33C351.75,618.39,352.25,624.07,352.85,630z"/>
	<path class="st0" d="M429,718.81c-0.77-3.56-9.68-130.67-9.3-132.48c6.06,6.36,11.98,12.72,18.07,18.91
		c2.8,2.84,5.33,5.93,8.21,8.69c1.1,1.05,1.4,2.23,1.5,3.62c0.9,12.82,1.82,25.63,2.74,38.45c0.82,11.53,1.62,23.07,2.49,34.6
		c0.13,1.69-0.19,2.91-1.49,4.19c-2.63,2.57-4.86,5.54-7.44,8.15c-4.39,4.45-8.24,9.4-12.8,13.68
		C430.33,717.2,429.8,717.9,429,718.81z"/>
	<path class="st0" d="M162.01,742.78c-2.24-1.52-3.82-3.15-5.32-4.8c-2.94-3.23-6.34-5.98-9.35-9.14c-2.28-2.39-4.69-4.67-7.08-6.96
		c-1.21-1.16-1.75-2.48-1.87-4.19c-1.59-22.92-3.24-45.83-4.88-68.74c-0.67-9.35-1.29-18.7-2.04-28.04
		c-0.14-1.73,0.28-3.02,1.43-4.28c4.1-4.5,8.15-9.05,12.17-13.61c1.74-1.97,3.31-4.1,5.26-5.88c0.33-0.3,0.6-0.66,1.23-0.64
		C155.04,645.12,158.51,693.76,162.01,742.78z"/>
	<path class="st0" d="M236.28,808.82c0.64,0.41,0.99,0.57,1.25,0.82c3.51,3.34,7.41,6.11,11.61,8.53
		c5.62,3.24,11.39,6.05,17.61,7.99c5.31,1.65,10.66,3.12,16.14,4.01c3.48,0.57,7,0.85,10.53,1.12c4.83,0.37,9.64,0.31,14.44-0.05
		c6.39-0.48,12.68-1.69,18.87-3.39c0.37-0.1,0.72-0.24,1.09,0.04c0.22,0.83-0.49,1.22-0.94,1.62c-3.49,3.11-6.18,6.98-9.51,10.22
		c-3.62,3.52-6.64,7.59-10.25,11.09c-3.41,3.3-6.22,7.13-9.61,10.42c-2.05,1.99-3.97,4.09-5.83,6.26c-1.21,1.41-1.28,1.37-2.61,0.09
		c-3.77-3.66-7.52-7.34-11.28-11.01c-5-4.87-10.09-9.66-14.96-14.65c-3.21-3.28-6.7-6.26-9.84-9.58
		c-3.83-4.04-8.06-7.67-11.91-11.68c-1.2-1.25-2.26-2.62-3.63-3.69c-0.41-0.32-0.76-0.73-0.81-1.31
		C236.45,813.52,236.17,811.36,236.28,808.82z"/>
	<path class="st0" d="M131.11,712.62c-3.81-3.18-6.95-6.63-10.3-9.85c-4.01-3.85-7.9-7.83-11.9-11.69
		c-0.88-0.85-1.29-1.75-1.38-2.95c-0.88-12.66-1.78-25.32-2.71-37.97c-0.1-1.3,0.28-2.23,1.17-3.23
		c5.08-5.64,10.05-11.38,15.09-17.05c1.13-1.27,2.39-2.41,3.65-3.69C125.39,627.99,131.34,708.96,131.11,712.62z"/>
	<path class="st0" d="M459.1,685.98c-1.49-20.92-2.97-41.53-4.45-62.33c1.43,0.46,2.2,1.49,3.04,2.36
		c8.57,8.97,17.06,18.03,25.76,26.88c0.68,0.69,1.28,1.47,1.96,2.18c1,1.03,0.92,1.56,0.02,2.73c-2.31,2.99-5.16,5.46-7.67,8.26
		c-4.87,5.42-9.81,10.78-14.75,16.14C461.85,683.44,460.56,684.57,459.1,685.98z"/>
	<path class="st0" d="M306.9,468.61c-1.94,0.65-3.89,0.03-5.82-0.09c-3.38-0.21-6.73-0.74-10.13-0.76c-5.5-0.02-11-0.08-16.47,0.73
		c-3.42,0.51-6.84,0.95-10.42,1.45c0.88-2.34,2.62-3.83,4.12-5.43c3.58-3.86,6.89-7.95,10.52-11.76c2.13-2.23,4.06-4.63,6.26-7.03
		c4.02,3.6,7.42,7.68,11.15,11.43c3.71,3.72,7.32,7.51,10.75,11.49L306.9,468.61z"/>
	<path class="st0" d="M98.55,655.88c0.62,8.73,1.24,17.43,1.87,26.13c-0.69,0.2-1-0.25-1.39-0.58c-3.44-2.92-6.37-6.36-9.62-9.48
		c-0.76-0.73-1.57-1.4-2.34-2.12c-0.51-0.48-0.62-0.98-0.1-1.57c3.63-4.1,7.13-8.33,11.06-12.17
		C98.12,656,98.28,655.98,98.55,655.88z"/>
	<path class="st0" d="M316.86,461.04c0.05,0.04,0.11,0.06,0.15,0.11c0.02,0.02,0,0.08,0,0.12c-0.04-0.08-0.08-0.17-0.13-0.25
		C316.89,461.01,316.86,461.04,316.86,461.04z"/>
</g>
</svg>
